<?xml version="1.0" encoding="UTF-8"?>
<svg width="578px" height="350px" viewBox="0 0 578 350" version="1.1" xmlns="http://www.w3.org/2000/svg" xmlns:xlink="http://www.w3.org/1999/xlink">
    <title>card</title>
    <defs>
        <linearGradient x1="22.1387358%" y1="42.9737321%" x2="100%" y2="42.9737321%" id="linearGradient-1">
            <stop stop-color="#0689D7" offset="0%"></stop>
            <stop stop-color="#1E55A2" offset="100%"></stop>
        </linearGradient>
        <rect id="path-2" x="0" y="0" width="578" height="350" rx="30"></rect>
        <path d="M11.7206181,3.07918668e-15 L41.6127153,4.02624068e-15 C45.6882295,3.27758086e-15 47.1661095,0.424345651 48.6560565,1.22117807 C50.1460036,2.0180105 51.3153228,3.18732969 52.1121553,4.67727678 C52.9089877,6.16722387 53.3333333,7.64510382 53.3333333,11.7206181 L53.3333333,52.2793819 C53.3333333,56.3548962 52.9089877,57.8327761 52.1121553,59.3227232 C51.3153228,60.8126703 50.1460036,61.9819895 48.6560565,62.7788219 C47.1661095,63.5756543 45.6882295,64 41.6127153,64 L11.7206181,64 C7.64510382,64 6.16722387,63.5756543 4.67727678,62.7788219 C3.18732969,61.9819895 2.0180105,60.8126703 1.22117807,59.3227232 C0.424345651,57.8327761 3.05716798e-13,56.3548962 3.05217692e-13,52.2793819 L3.05849061e-13,11.7206181 C3.05349954e-13,7.64510382 0.424345651,6.16722387 1.22117807,4.67727678 C2.0180105,3.18732969 3.18732969,2.0180105 4.67727678,1.22117807 C6.16722387,0.424345651 7.64510382,3.8278465e-15 11.7206181,3.07918668e-15 Z" id="path-4"></path>
        <filter x="-5.6%" y="-4.7%" width="111.2%" height="109.4%" filterUnits="objectBoundingBox" id="filter-5">
            <feGaussianBlur stdDeviation="2" in="SourceAlpha" result="shadowBlurInner1"></feGaussianBlur>
            <feOffset dx="2" dy="0" in="shadowBlurInner1" result="shadowOffsetInner1"></feOffset>
            <feComposite in="shadowOffsetInner1" in2="SourceAlpha" operator="arithmetic" k2="-1" k3="1" result="shadowInnerInner1"></feComposite>
            <feColorMatrix values="0 0 0 0 0   0 0 0 0 0   0 0 0 0 0  0 0 0 0.6 0" type="matrix" in="shadowInnerInner1"></feColorMatrix>
        </filter>
        <filter x="-36.1%" y="-36.1%" width="172.3%" height="172.3%" filterUnits="objectBoundingBox" id="filter-6">
            <feGaussianBlur stdDeviation="50" in="SourceGraphic"></feGaussianBlur>
        </filter>
    </defs>
    <g id="Web-Design" stroke="none" stroke-width="1" fill="none" fill-rule="evenodd">
        <g id="Header-4-Copy-2" transform="translate(-802.000000, -225.000000)">
            <g id="card" transform="translate(802.000000, 225.000000)">
                <g id="Rectangle">
                    <mask id="mask-3" fill="white">
                        <use xlink:href="#path-2"></use>
                    </mask>
                    <use id="Mask" fill="url(#linearGradient-1)" xlink:href="#path-2"></use>
                    <g id="Circuit" mask="url(#mask-3)">
                        <g transform="translate(494.000000, 234.000000)">
                            <path d="M11.7206181,3.07918668e-15 L41.6127153,4.02624068e-15 C45.6882295,3.27758086e-15 47.1661095,0.424345651 48.6560565,1.22117807 C50.1460036,2.0180105 51.3153228,3.18732969 52.1121553,4.67727678 C52.9089877,6.16722387 53.3333333,7.64510382 53.3333333,11.7206181 L53.3333333,52.2793819 C53.3333333,56.3548962 52.9089877,57.8327761 52.1121553,59.3227232 C51.3153228,60.8126703 50.1460036,61.9819895 48.6560565,62.7788219 C47.1661095,63.5756543 45.6882295,64 41.6127153,64 L11.7206181,64 C7.64510382,64 6.16722387,63.5756543 4.67727678,62.7788219 C3.18732969,61.9819895 2.0180105,60.8126703 1.22117807,59.3227232 C0.424345651,57.8327761 7.83431228e-14,56.3548962 7.78440163e-14,52.2793819 L7.84753856e-14,11.7206181 C7.79762791e-14,7.64510382 0.424345651,6.16722387 1.22117807,4.67727678 C2.0180105,3.18732969 3.18732969,2.0180105 4.67727678,1.22117807 C6.16722387,0.424345651 7.64510382,3.8278465e-15 11.7206181,3.07918668e-15 Z" id="Background" stroke="none" fill-opacity="0.02" fill="#FFFFFF" fill-rule="evenodd"></path>
                            <g id="Shadows" stroke="none" fill="none" style="mix-blend-mode: overlay;" fill-opacity="1">
                                <use fill="black" filter="url(#filter-5)" xlink:href="#path-4"></use>
                            </g>
                            <g id="Grid" stroke="none" stroke-width="1" fill="none" fill-rule="evenodd" transform="translate(1.000000, 1.000000)" stroke-linecap="square">
                                <path d="M0.499999999,14.6190476 L51.5,14.6190476 M0.499999999,48.1428571 L51.5,48.1428571 M13.8587076,14.6190476 L13.8587076,48.1428571 M25.2857143,14.6190476 L25.2857143,0.5 M51.5,48.1428571 L32.9063267,48.1428571 L32.9063267,32.1428571 C32.9063267,28.7765501 35.6352577,26.047619 39.0015648,26.047619 L51.5,26.047619 M32.9063267,37.0952381 L51.5,37.0952381 M0.499999999,25.7936508 L13.8587076,25.7936508 M0.499999999,36.968254 L13.8587076,36.968254 M25.2872791,48.1428571 L25.2872791,61.5" id="Shape" stroke="#FFFFFF"></path>
                            </g>
                            <path d="M42.2793819,0.5 C46.2132976,0.5 47.6468577,0.891928883 49.0869238,1.66208467 C50.4884478,2.41162793 51.5883721,3.51155219 52.3379153,4.91307621 C53.1080711,6.35314234 53.5,7.78670243 53.5,11.7206181 L53.5,11.7206181 L53.5,52.2793819 C53.5,56.2132976 53.1080711,57.6468577 52.3379153,59.0869238 C51.5883721,60.4884478 50.4884478,61.5883721 49.0869238,62.3379153 C47.6468577,63.1080711 46.2132976,63.5 42.2793819,63.5 L42.2793819,63.5 L11.7206181,63.5 C7.78670243,63.5 6.35314234,63.1080711 4.91307621,62.3379153 C3.51155219,61.5883721 2.41162793,60.4884478 1.66208467,59.0869238 C0.891928883,57.6468577 0.5,56.2132976 0.5,52.2793819 L0.5,52.2793819 L0.5,11.7206181 C0.5,7.78670243 0.891928883,6.35314234 1.66208467,4.91307621 C2.41162793,3.51155219 3.51155219,2.41162793 4.91307621,1.66208467 C6.35314234,0.891928883 7.78670243,0.5 11.7206181,0.5 L11.7206181,0.5 Z" id="Border" stroke="#FFFFFF" stroke-width="1" fill="none"></path>
                        </g>
                    </g>
                    <text id="cauri" mask="url(#mask-3)" font-family="BasierCircle-SemiBold, Basier Circle" font-size="28" font-weight="500" fill="#FFFFFF">
                        <tspan x="30" y="56">CAURI</tspan>
                    </text>
                    <path d="M521.63125,59.1071396 C521.752083,59.2095602 521.88125,59.3119808 522.008333,59.4123112 C519.55625,61.0489506 516.6125,62 513.452083,62 C504.916667,62.0020893 498,55.0625709 498,46.5010446 C498,37.9416086 504.916667,31 513.45,31 C516.6125,31 519.55625,31.9531387 522.002083,33.5876879 C521.877083,33.6942889 521.752083,33.7925291 521.658333,33.9012203 C518,37.0720786 515.90625,41.6684644 515.90625,46.5010446 C515.90625,51.3315347 517.991667,55.9279205 521.63125,59.1071396 Z M532.55,31 C529.383333,31 526.44375,31.9531387 523.997917,33.5876879 C524.122917,33.6942889 524.247917,33.7925291 524.341667,33.9012203 C528,37.0720786 530.09375,41.6684644 530.09375,46.5010446 C530.09375,51.3294445 528.008333,55.9216498 524.36875,59.1071396 C524.247917,59.2095602 524.11875,59.3119808 523.991667,59.4123112 C526.44375,61.0489506 529.383333,62 532.547917,62 C541.083333,62.0020893 548,55.0625709 548,46.5010446 C548,37.9436988 541.083333,31 532.55,31 Z M523,34.323444 C522.8,34.4802103 522.60625,34.6369765 522.416667,34.806284 C519.158333,37.6468881 517.102083,41.829411 517.102083,46.5010446 C517.102083,51.1747685 519.158333,55.3552012 522.416667,58.1958053 C522.604167,58.3630226 522.802083,58.5260594 523,58.6807355 C523.2,58.5260594 523.39375,58.3630226 523.583333,58.1958053 C526.839583,55.3552012 528.897917,51.1747685 528.897917,46.5010446 C528.897917,41.829411 526.841667,37.6468881 523.583333,34.806284 C523.395833,34.6390667 523.2,34.4802103 523,34.323444 Z" id="Shape" fill="#FFFFFF" fill-rule="nonzero" mask="url(#mask-3)"></path>
                    <rect fill-opacity="0.833151224" fill="#C9338D" filter="url(#filter-6)" mask="url(#mask-3)" x="-102" y="210" width="415" height="415" rx="207.5"></rect>
                </g>
                <g id="Group" transform="translate(30.000000, 257.000000)" fill="#FFFFFF" font-weight="400">
                    <text id="Lamine-Tall" font-family="Roboto-Medium, Roboto" font-size="18" fill-opacity="0.967438811">
                        <tspan x="0" y="37">Lamine Tall</tspan>
                    </text>
                    <text id="Name" font-family="HelveticaNeue-Medium, Helvetica Neue" font-size="12" fill-opacity="0.6">
                        <tspan x="0" y="12">Name</tspan>
                    </text>
                </g>
                <g id="Group" transform="translate(30.000000, 134.000000)" fill="#FFFFFF">
                    <text id="5737-4277-4825-2858" font-family="CreditCard, Credit Card" font-size="20" font-weight="normal" letter-spacing="5">
                        <tspan x="0" y="45">5737  4277  4825  2858</tspan>
                    </text>
                    <text id="Card-Number" font-family="HelveticaNeue-Medium, Helvetica Neue" font-size="12" font-weight="400" fill-opacity="0.6">
                        <tspan x="0" y="12">Card Number</tspan>
                    </text>
                </g>
                <g id="Group-2" transform="translate(162.000000, 257.000000)" fill="#FFFFFF" font-weight="400">
                    <text id="Exp.-Date" font-family="HelveticaNeue-Medium, Helvetica Neue" font-size="12" fill-opacity="0.6">
                        <tspan x="1" y="12">Exp. Date</tspan>
                    </text>
                    <text id="05/25" font-family="Roboto-Medium, Roboto" font-size="18" fill-opacity="0.967438811">
                        <tspan x="0" y="37">05/25</tspan>
                    </text>
                </g>
            </g>
        </g>
    </g>
</svg>