<?xml version="1.0" encoding="UTF-8"?>
<svg width="133px" height="40px" viewBox="0 0 133 40" version="1.1" xmlns="http://www.w3.org/2000/svg" xmlns:xlink="http://www.w3.org/1999/xlink">
    <title>logo</title>
    <g id="Web-Design" stroke="none" stroke-width="1" fill="none" fill-rule="evenodd">
        <g id="Header-4-Copy" transform="translate(-653.000000, -45.000000)">
            <g id="logo" transform="translate(653.000000, 45.000000)">
                <g id="Cauri" fill-rule="nonzero">
                    <g id="layer101" fill="#0585FF">
                        <path d="M13.4408602,39.9641577 C13.4375415,39.960839 13.1919554,39.9409266 12.8999071,39.9243329 C12.60454,39.9044205 12.2162485,39.861277 12.0337183,39.8314085 C8.99044205,39.2705429 6.01022169,37.2859419 3.83645294,34.3754148 C2.26669322,32.2779769 1.22129298,29.9681402 0.667064914,27.3762113 C0.152661622,24.9601752 0.0132749237,23.8517191 0.0165361299,22.1093854 C0.0165361299,21.2166468 0.0232311164,21.0075667 0.0696933493,20.4101951 C0.219036241,18.5682995 0.783220496,16.3679809 1.6427718,14.3103677 C2.13726271,13.1255808 3.11628833,11.346741 4.0355768,9.96946768 C4.72919156,8.92074871 4.96814018,8.59883181 7.35098898,5.41285013 C9.32895261,2.76450285 10.3710341,1.35072348 10.6166202,0.979025621 C10.8323377,0.65047126 10.965087,0.365060401 10.9883181,0.169255277 L11.0082305,0.0165936546 L11.4197531,0.00995619275 C11.6454268,0.00995619275 11.8545068,0.00995619275 11.877738,0.0132749237 C11.9042878,0.0199123855 12.0038497,0.0265498473 12.1034117,0.0331873092 C14.1942121,0.159299084 16.1954069,0.72348334 18.2131953,1.76224612 C19.4676756,2.40939865 20.8847737,3.38510554 21.8140183,4.24465684 C21.8737555,4.30107527 21.9666799,4.38404354 22.0197796,4.42386831 C22.2487721,4.61303598 23.3738219,5.79782291 23.7222886,6.21266428 C24.2864729,6.89300412 24.6017523,7.3211204 25.0763308,8.03796628 C25.3849728,8.50590734 25.567503,8.72494358 25.5642287,8.77804328 C25.5608655,8.79795566 25.345148,8.94729855 25.1493429,9.10659764 C24.950219,9.26921545 24.6117085,9.55130758 24.3993097,9.73383778 C24.1869109,9.91636798 24.0973052,10.0988982 24.0807115,10.0922607 C24.0641179,10.088942 23.9612372,10.1719103 23.9711934,10.1851852 C23.9844683,10.2017788 23.9612372,10.1851852 23.9280499,10.2084163 C23.8948626,10.2316474 23.6227267,10.4208151 23.3240409,10.6962697 C23.0253551,10.9717244 22.8361874,11.223948 22.8195938,11.2173105 C22.8063189,11.2139918 22.6968007,11.2803664 22.7001195,11.2936413 C22.7067569,11.310235 22.434621,11.5525023 22.0596044,11.9407938 C20.6391876,13.4143104 19.8294172,14.4198858 18.9167662,15.6677287 C18.611443,16.0858888 17.9642905,17.0416833 17.7518917,17.3967875 C17.6656047,17.5394929 17.6357361,17.6423736 17.6158237,17.6324174 C17.5992301,17.6224612 17.5594053,17.6755609 17.5693615,17.6888358 C17.5925926,17.7220231 17.2607195,18.2895261 17.2341697,18.266295 C17.2242135,18.2563388 17.1711138,18.3791318 17.1711138,18.3957255 C17.167795,18.4720563 16.7828222,19.2353644 16.7562724,19.2121333 C16.7429975,19.1955396 16.6898978,19.2751892 16.7031727,19.2951016 C16.7230851,19.3249701 16.427718,19.9455728 16.3746183,19.9887163 C16.3646622,19.9986725 16.3082437,20.1148281 16.3016063,20.1446967 C16.2850126,20.2475773 16.0527014,20.7785743 16.0294703,20.7586619 C16.0128767,20.745387 15.9531395,20.8549051 15.959777,20.8748175 C15.9830081,20.9113235 15.6677287,21.6182132 15.6245852,21.6348068 C15.6113102,21.6414443 15.6113102,21.6646754 15.6179477,21.6912253 C15.6345414,21.7277313 15.6444975,21.7609186 15.6113102,21.744325 C15.5847604,21.7277313 15.5714855,21.7609186 15.5847604,21.780831 C15.5980353,21.8007434 15.5615293,21.8372494 15.515067,21.9500863 C15.2993495,22.4976769 15.0238949,23.0917297 14.8944644,23.4767025 C14.7418027,23.9446436 14.4895792,24.8008761 14.4563919,24.9701314 C14.443117,25.036506 14.4962166,25.1061994 14.4763043,25.0929245 C14.4563919,25.0829683 14.4232046,25.1692553 14.4331608,25.1858489 C14.4630293,25.2323112 14.3900173,25.6106465 14.3535112,25.5907341 C14.3402363,25.5807779 14.307049,25.6869773 14.3170052,25.7102084 C14.3269614,25.7367583 14.2539493,25.8495951 14.2141245,26.0719501 C14.170981,26.2943051 14.1178813,26.616222 14.0946502,26.7854772 C14.0714191,26.9514138 14.084694,27.1007567 14.0714191,27.1007567 C14.0581442,27.1007567 14.0614629,27.1638126 14.0714191,27.2368246 C14.084694,27.3098367 14.0714191,27.4027612 14.0548254,27.392805 C14.0382318,27.3828488 14.0183194,27.4624983 14.0116819,27.6483473 C14.0083632,27.8308775 14.0116819,27.996814 13.9950883,28.0034515 C13.9818134,28.0067702 13.9718572,28.1196071 13.9751759,28.2589938 C13.9818134,28.4050179 13.9818134,28.650604 13.9685384,28.600823 C13.9552635,28.5477234 13.9585822,28.8165406 13.9585822,29.4039559 C13.9585822,29.9880526 13.9519448,30.426125 13.9652197,30.3730254 C13.9818134,30.2834196 14.034913,30.8509226 14.0382318,31.1496084 C14.0382318,31.2325767 14.0382318,31.2856764 14.0548254,31.2856764 C14.0714191,31.2856764 14.0681004,31.3454135 14.0614629,31.3951945 C14.048188,31.4482942 14.0714191,31.4947564 14.0880127,31.4947564 C14.1012877,31.4947564 14.0747378,31.6075933 14.0946502,31.7536174 C14.1178813,31.8963228 14.1676623,32.1618213 14.2108058,32.350989 C14.2506306,32.5368379 14.307049,32.6795433 14.2970928,32.7094119 C14.2871366,32.7392805 14.343555,32.8222488 14.3568299,32.8089738 C14.3866985,32.7791053 14.4663481,33.1010222 14.4464357,33.1607593 C14.4397982,33.1806717 14.4696668,33.2536838 14.4829417,33.2603213 C14.5128103,33.2702774 14.6787468,33.7979557 14.6820656,33.8842427 C14.6820656,33.9141112 14.7119342,34.003717 14.7185716,33.9937608 C14.7484402,33.9672109 14.8513209,34.2360281 14.8280897,34.2758529 C14.8181335,34.2957653 14.8280897,34.3787336 14.8413647,34.3621399 C14.8679145,34.3389088 15.1201381,34.9893801 15.1367317,34.9893801 C15.1533254,34.9893801 16.3945307,37.1200053 16.3779371,37.1465552 C16.3679809,37.1565114 17.0848268,38.1255808 17.1910262,38.1886367 C17.6058675,38.5968406 18.2596575,39.0017257 18.2596575,39.0017257 L18.1069959,39.0714191 C17.7784415,39.2174432 17.2076198,39.4099296 16.6168857,39.5791849 C16.1655383,39.7119342 15.2362936,39.8878269 14.7617151,39.9309704 C14.5924598,39.9508828 13.4508164,39.9774326 13.4408602,39.9641577 Z" id="Path"></path>
                    </g>
                    <path d="M14.9011018,34.5313952 C14.4198858,33.3432895 14.1178813,32.1419089 13.9751759,30.8476039 C13.9220762,30.339838 13.9220762,28.4116554 13.9751759,27.8441524 C14.2108058,25.4380725 14.7683526,23.4733838 15.9996018,20.7121997 C17.4731183,17.4001062 19.0827028,15.0504447 21.8505244,12.1498739 C22.9589805,10.9849993 23.964556,10.0590734 25.1427054,9.10327891 C25.3683791,8.92074871 25.5475906,8.74153724 25.5542281,8.75149343 C25.5641843,8.76808708 25.6604275,8.97052967 25.789858,9.1995221 C26.0055755,9.58449489 26.5564848,10.6464888 26.5564848,10.6863136 C26.5564848,10.6962697 26.602947,10.8057879 26.6626842,10.9318996 C26.861808,11.3500597 27.1638126,12.0967742 27.343024,12.6111775 L27.4326298,12.8667198 L26.8286207,13.4010354 C25.6006903,14.4962166 24.3926722,15.6544537 23.1780167,16.9222089 C18.4322315,21.8637993 15.5250232,26.51666 14.8015399,30.3265631 C14.6654719,31.0400903 14.6289659,31.4516129 14.6289659,32.1983274 C14.6289659,33.1441657 14.738484,33.9207487 14.9707952,34.607726 C15.0139387,34.7338378 15.0438072,34.8400372 15.0404885,34.8467327 C15.0371698,34.8499934 14.9741139,34.7106067 14.9011018,34.5313952 Z" id="Path" fill="#5DAFFF"></path>
                    <path d="M16.3712996,37.1465552 C15.5382982,36.0845613 15.0238949,35.0292048 14.7915837,33.8941989 C14.6621532,33.2735962 14.6289659,32.905217 14.6322846,32.1684588 C14.6356033,30.8110978 14.8911456,29.5732112 15.4851985,27.9868578 C16.8591531,24.3362538 20.0318598,19.9754414 24.5221027,15.564848 C25.690296,14.4165671 27.3894863,12.8036639 27.4326298,12.8501261 C27.4558609,12.8833134 27.6350723,13.430904 27.787734,13.961901 C28.2058941,15.4221426 28.5211735,17.0848268 28.6240542,18.4156379 L28.6439665,18.6545865 L28.4448427,18.7740608 C22.2786406,22.5441391 18.0207089,26.4668791 16.2949688,29.9681402 C15.8303465,30.9106598 15.5316607,31.8498606 15.4155051,32.7293243 C15.3491305,33.2337714 15.3624054,34.2459843 15.4453737,34.6840568 C15.6046728,35.5502456 15.9863268,36.4994026 16.440993,37.1764237 C16.52728,37.2992168 16.650073,37.5049781 16.6467543,37.5049781 C16.6367981,37.5049781 16.4841365,37.2859419 16.3712996,37.1465552 Z" id="Path" fill="#BCDDFF"></path>
                </g>
                <text id="cauri" font-family="RubikRoman-Medium, Rubik" font-size="30" font-weight="400" fill="#F1F4FA">
                    <tspan x="41" y="30">CAURI</tspan>
                </text>
            </g>
        </g>
    </g>
</svg>